# AST/ASF file generated using VICON BodyLanguage
# -----------------------------------------------
:version 1.10
:name VICON
:units
  mass 1.0
  length 0.45
  angle deg
:documentation
   .ast/.asf automatically generated from VICON data using
   VICON BodyBuilder and BodyLanguage model FoxedUp or BRILLIANT.MOD
:root
   order TX TY TZ RX RY RZ
   axis XYZ
   position 0 0 0  
   orientation 0 -0 0 
:bonedata
  begin
     id 1 
     name lhipjoint
     direction 0.500677 -0.737119 0.453848 
     length 2.34727 
     axis 0 -0 0  XYZ
  end
  begin
     id 2 
     name lfemur
     direction 0.34202 -0.939693 0  
     length 7.53653  
     axis 0 -0 20  XYZ
    dof rx ry rz
    limits (-160.0 20.0)
           (-70.0 70.0)
           (-60.0 70.0)
  end
  begin
     id 3 
     name ltibia
     direction 0.34202 -0.939693 0   
     length 6.85572   
     axis 0 -0 20   XYZ
    dof rx
    limits (-10.0 170.0)
  end
  begin
     id 4 
     name lfoot
     direction 0.155313 -0.426718 0.890949   
     length 2.18324   
     axis -90 -1.13533e-015 20   XYZ
    dof rx rz
    limits (-45.0 90.0)
           (-70.0 20.0)
  end
  begin
     id 5 
     name ltoes
     direction 1.53474e-011 -4.21647e-011 1   
     length 1.06748   
     axis -90 -1.13533e-015 20   XYZ
    dof rx
    limits (-90.0 20.0)
  end
  begin
     id 6 
     name rhipjoint
     direction -0.632471 -0.659587 0.406111   
     length 2.62319  
     axis 0 -0 0  XYZ 
  end
  begin
     id 7 
     name rfemur
     direction -0.34202 -0.939693 0   
     length 7.21735   
     axis 0 -0 -20   XYZ
    dof rx ry rz
    limits (-160.0 20.0)
           (-70.0 70.0)
           (-70.0 60.0)
  end
  begin
     id 8 
     name rtibia
     direction -0.34202 -0.939693 0   
     length 7.02558   
     axis 0 -0 -20   XYZ
    dof rx
    limits (-10.0 170.0)
 end
 begin
     id 9 
     name rfoot
     direction -0.16057 -0.441164 0.882945   
     length 2.10014  
     axis -90 1.13533e-015 -20   XYZ
    dof rx rz
    limits (-45.0 90.0)
           (-20.0 70.0)
  end
  begin
     id 10 
     name rtoes
     direction -1.53553e-011 -4.2192e-011 1   
     length 1.02554   
     axis -90 1.13533e-015 -20   XYZ
    dof rx
    limits (-90.0 20.0)
  end
  begin
     id 11 
     name lowerback
     direction 0.0401429 0.998861 -0.0258085   
     length 1.80848   
     axis 0 -0 0   XYZ
    dof rx ry rz
    limits (-20.0 45.0)
           (-30.0 30.0)
           (-30.0 30.0)
  end
  begin
     id 12 
     name upperback
     direction -0.0130978 0.999914 -0.000352645   
     length 1.8116   
     axis 0 -0 0   XYZ
    dof rx ry rz
    limits (-20.0 45.0)
           (-30.0 30.0)
           (-30.0 30.0)
  end
  begin
     id 13 
     name thorax
     direction -0.0300198 0.999453 0.0138573   
     length 1.81778   
     axis 0 -0 0   XYZ
    dof rx ry rz
    limits (-20.0 45.0)
           (-30.0 30.0)
           (-30.0 30.0)
  end
  begin
     id 14 
     name lowerneck
     direction -0.0401726 0.999191 -0.00173647   
     length 2.10594   
     axis 0 -0 0   XYZ
    dof rx ry rz
    limits (-20.0 45.0)
           (-30.0 30.0)
           (-30.0 30.0)
  end
  begin
     id 15 
     name upperneck
     direction 0.0119835 0.998501 0.0534085   
     length 2.07325   
     axis 0 -0 0   XYZ
    dof rx ry rz
    limits (-20.0 45.0)
           (-30.0 30.0)
           (-30.0 30.0)
  end
  begin
     id 16
     name head
     direction 0.00628309 0.999826 0.0175921  
     length 2.15096  
     axis 0 -0 0   XYZ
    dof rx ry rz
    limits (-20.0 45.0)
           (-30.0 30.0)
           (-30.0 30.0)
  end
  begin
     id 17 
     name lclavicle
     direction 0.895501 0.429681 -0.115981  
     length 4.18092  
     axis 0 -0 0   XYZ
    dof ry rz
    limits (-20.0 10.0)
           (0.0 20.0)
  end
  begin
     id 18 
     name lhumerus
     direction 1 -4.48961e-011 -3.38433e-028   
     length 5.77237   
     axis 180 -30 -90   XYZ
    dof rx ry rz
    limits (-60.0 90.0)
           (-90.0 90.0)
           (-90.0 90.0)
  end
  begin
     id 19
     name lradius
     direction 1 -4.4901e-011 1.11983e-026   
     length 2.91878   
     axis 180 -30 -90   XYZ
    dof rx
    limits (-10.0 170.0)
  end
  begin
     id 20
     name lwrist
     direction 1 -4.48934e-011 1.88176e-026   
     length 1.45939   
     axis -1.23311e-014 90 90   XYZ
    dof ry
    limits (-180.0 0.0)
 end
  begin
     id 21 
     name lhand
     direction 1 -4.4895e-011 3.76352e-026   
     length 1.06566   
     axis -2.40147e-014 90 90   XYZ
    dof rx rz
    limits (-90.0 90.0)
           (-45.0 45.0)
  end
  begin
     id 22 
     name lfingers
     direction 1 -4.49005e-011 7.52705e-026   
     length 0.859162   
     axis -4.80295e-014 90 90   XYZ
    dof rx
    limits (0.0 90.0)
  end
  begin
     id 23
     name lthumb
     direction 0.707107 -6.34885e-011 0.707107   
     length 1.23359   
     axis -90 45 -9.86935e-015   XYZ
    dof rx rz
    limits (-45.0 45.0)
           (-45.0 45.0)
  end
  begin
     id 24 
     name rclavicle
     direction -0.91006 0.40451 -0.0903492   
     length 4.23293  
     axis 0 -0 0   XYZ 
    dof ry rz
    limits (-10.0 20.0)
           (-20.0 0.0)
  end
  begin
     id 25 
     name rhumerus
     direction -1 -4.4897e-011 1.7415e-027  
     length 5.49854   
     axis 180 30 90   XYZ
    dof rx ry rz
    limits (-90.0 60.0)
           (-90.0 90.0)
           (-90.0 90.0)
  end
  begin
     id 26 
     name rradius
     direction -1 -4.48963e-011 1.21259e-026   
     length 3.1186   
     axis 180 30 90   XYZ
    dof rx
    limits (-10.0 170.0)
  end
  begin
     id 27 
     name rwrist
     direction -1 -4.48967e-011 1.88176e-026   
     length 1.5593   
     axis -1.23311e-014 -90 -90   XYZ
    dof ry
    limits (-180.0 0.0)
  end
  begin
     id 28
     name rhand
     direction -1 -4.4895e-011 3.76352e-026   
     length 0.71207   
     axis -2.40147e-014 -90 -90   XYZ
    dof rx rz
    limits (-90.0 90.0)
           (-45.0 45.0)
  end
  begin
     id 29
     name rfingers
     direction -1 -4.49005e-011 7.52705e-026   
     length 0.574089   
     axis -4.80295e-014 -90 -90   XYZ
    dof rx
    limits (0.0 90.0)
  end
  begin
     id 30
     name rthumb
     direction -0.707107 -6.34982e-011 0.707107   
     length 0.824281   
     axis -90 -45 9.86935e-015   XYZ
    dof rx rz
    limits (-45.0 45.0)
           (-45.0 45.0)
  end
:hierarchy
  begin
    root lhipjoint rhipjoint lowerback
    lhipjoint lfemur
    lfemur ltibia
    ltibia lfoot
    lfoot ltoes
    rhipjoint rfemur
    rfemur rtibia
    rtibia rfoot
    rfoot rtoes
    lowerback upperback
    upperback thorax
    thorax lowerneck lclavicle rclavicle
    lowerneck upperneck
    upperneck head
    lclavicle lhumerus
    lhumerus lradius
    lradius lwrist
    lwrist lhand lthumb
    lhand lfingers
    rclavicle rhumerus
    rhumerus rradius
    rradius rwrist
    rwrist rhand rthumb
    rhand rfingers
  end

#!OML:ASF C:\ViconDB\ViconDB\414\Spring2016\042216\male.ASF
:FULLY-SPECIFIED
:DEGREES
602
root 12.7689 16.4838 18.7838 -173.575 41.2251 -171.988
lowerback 1.15334 -3.44018 3.20071
upperback -0.403624 -4.52768 0.271617
thorax -1.28514 -2.28334 -1.39725
lowerneck -0.960912 -3.58595 -12.9055
upperneck -6.94114 -4.0776 12.9291
head -1.3044 -1.91872 6.06692
rclavicle 1.9887e-014 -3.18055e-015
rhumerus -48.6999 -4.87444 -83.8964
rradius 29.4162
rwrist 29.7208
rhand 17.1965 -14.7125
rfingers 7.12502
rthumb 41.915 -39.331
lclavicle 1.9887e-014 -3.18055e-015
lhumerus -36.7716 5.61748 93.6568
lradius 44.2895
lwrist -9.0247
lhand -6.198 5.43125
lfingers 7.12502
lthumb 19.642 34.459
rfemur -13.4031 2.69591 23.8713
rtibia 50.8897
rfoot -23.0259 -4.01116
rtoes -23.009
lfemur -8.46739 1.27597 -16.9423
ltibia 49.1966
lfoot -38.8369 17.3443
ltoes -27.1218
603
root 12.7784 16.5977 18.7536 -173.464 41.3631 -171.836
lowerback 0.789857 -3.33257 3.58285
upperback -0.358527 -4.3946 0.220701
thorax -1.06182 -2.21587 -1.68961
lowerneck -0.938855 -3.71598 -12.7657
upperneck -6.96329 -4.25333 12.9068
head -1.29503 -2.00907 6.03496
rclavicle -9.39966e-014 3.4191e-014
rhumerus -48.7141 -5.32509 -83.3877
rradius 29.6802
rwrist 29.594
rhand 16.766 -15.7016
rfingers 7.12502
rthumb 41.5113 -40.4532
lclavicle -9.39966e-014 3.4191e-014
lhumerus -36.9989 4.43812 93.5444
lradius 44.9485
lwrist -7.25582
lhand -5.10994 6.33438
lfingers 7.12502
lthumb 20.6878 35.2518
rfemur -12.6204 2.57151 23.9508
rtibia 49.2255
rfoot -21.933 -4.11233
rtoes -22.8489
lfemur -7.68928 1.06355 -16.9127
ltibia 47.4566
lfoot -37.5108 17.0139
ltoes -27.1547
604
root 12.7871 16.7111 18.7174 -173.994 41.496 -172.464
lowerback 0.612926 -3.28128 3.25084
upperback -0.297469 -4.34099 0.109254
thorax -0.880824 -2.18508 -1.63489
lowerneck -0.868043 -3.7896 -12.7827
upperneck -7.16659 -4.33571 13.0086
head -1.35104 -2.05058 6.07405
rclavicle -1.56228e-014 -1.59028e-015
rhumerus -48.508 -5.82136 -82.7741
rradius 29.7064
rwrist 28.8842
rhand 16.2432 -16.4966
rfingers 7.12502
rthumb 41.0206 -41.4065
lclavicle -1.56228e-014 -1.59028e-015
lhumerus -37.032 3.34261 93.5529
lradius 45.2057
lwrist -5.37823
lhand -4.64605 7.13059
lfingers 7.12502
lthumb 21.1335 35.9988
rfemur -11.5709 2.2657 23.3282
rtibia 47.3814
rfoot -20.7835 -3.91712
rtoes -22.1405
lfemur -6.63842 0.87953 -17.5641
ltibia 45.5454
lfoot -36.1655 16.9293
ltoes -27.3616
605
root 12.793 16.8213 18.6907 -173.828 41.4443 -172.364
lowerback 0.345471 -3.29124 3.37119
upperback -0.341184 -4.36056 0.217771
thorax -0.77764 -2.19339 -1.60566
lowerneck -0.585695 -3.86102 -12.7802
upperneck -7.48225 -4.43959 12.9916
head -1.4764 -2.10848 6.07934
rclavicle 3.06563e-015 3.18055e-015
rhumerus -48.3161 -5.92762 -82.2327
rradius 29.7295
rwrist 27.6285
rhand 15.9591 -16.9641
rfingers 7.12502
rthumb 40.7536 -41.9583
lclavicle 3.06563e-015 3.18055e-015
lhumerus -37.0826 2.54209 93.5116
lradius 45.4509
lwrist -3.68624
lhand -4.35303 7.73314
lfingers 7.12502
lthumb 21.4149 36.5696
rfemur -10.7776 1.78853 23.3334
rtibia 45.4601
rfoot -19.55 -3.71983
rtoes -21.7286
lfemur -5.97536 0.669866 -17.5084
ltibia 43.7398
lfoot -34.4688 16.4779
ltoes -27.8586
606
root 12.7984 16.9264 18.6629 -173.757 41.3358 -172.332
lowerback 0.113068 -3.27871 3.5235
upperback -0.311335 -4.35278 0.219978
thorax -0.627775 -2.18731 -1.70372
lowerneck -0.570383 -3.91822 -12.5522
upperneck -7.72918 -4.48747 12.989
head -1.54927 -2.13353 6.04501
rclavicle 4.0212e-014 -2.38542e-015
rhumerus -47.9016 -6.36727 -81.7779
rradius 29.5289
rwrist 26.3956
rhand 15.6348 -17.4019
rfingers 7.12502
rthumb 40.4489 -42.4909
lclavicle 4.0212e-014 -2.38542e-015
lhumerus -37.0129 1.57157 93.351
lradius 45.5756
lwrist -2.22807
lhand -4.05656 8.37213
lfingers 7.12502
lthumb 21.6996 37.176
rfemur -9.90656 1.48743 23.3355
rtibia 43.5441
rfoot -18.2853 -3.69091
rtoes -21.2214
lfemur -5.25871 0.519051 -17.4697
ltibia 41.951
lfoot -32.9535 16.0139
ltoes -28.1507
607
root 12.8059 17.0236 18.6363 -173.523 41.1769 -172.17
lowerback -0.0844346 -3.3396 3.63199
upperback -0.396449 -4.43695 0.365374
thorax -0.60614 -2.22893 -1.62343
lowerneck -0.494406 -3.90377 -12.4313
upperneck -7.86019 -4.4633 12.9541
head -1.6069 -2.12469 6.01842
rclavicle 3.7592e-014 1.03368e-014
rhumerus -47.5108 -6.57943 -81.2459
rradius 29.3007
rwrist 25.0923
rhand 15.3204 -17.583
rfingers 7.12502
rthumb 40.1532 -42.7626
lclavicle 3.7592e-014 1.03368e-014
lhumerus -37.1289 1.18082 93.1277
lradius 45.7767
lwrist -1.35895
lhand -3.50486 8.81464
lfingers 7.12502
lthumb 22.2294 37.5563
rfemur -9.11692 1.34711 23.4603
rtibia 41.6205
rfoot -17.0038 -3.76858
rtoes -20.809
lfemur -4.69957 0.300556 -17.3192
ltibia 40.3508
lfoot -31.369 15.5642
ltoes -28.6139
608
root 12.8174 17.1254 18.5976 -173.626 41.1409 -172.399
lowerback -0.429295 -3.3425 3.57013
upperback -0.353367 -4.45658 0.386616
thorax -0.36361 -2.23392 -1.59164
lowerneck -0.419884 -3.95268 -12.5294
upperneck -8.1039 -4.50413 13.1255
head -1.67635 -2.14469 6.09519
rclavicle -2.47378e-014 2.38542e-015
rhumerus -46.9535 -6.88806 -80.7623
rradius 28.9179
rwrist 24.2881
rhand 15.1538 -17.5306
rfingers 7.12502
rthumb 39.9964 -42.7577
lclavicle -2.47378e-014 2.38542e-015
lhumerus -36.9812 0.651719 92.8725
lradius 45.7202
lwrist -0.844435
lhand -3.377 8.90905
lfingers 7.12502
lthumb 22.3521 37.636
rfemur -8.16774 1.4813 23.2418
rtibia 39.7529
rfoot -15.7857 -3.92982
rtoes -20.6577
lfemur -4.06486 0.0772583 -17.5439
ltibia 38.8345
lfoot -29.7723 15.0376
ltoes -28.9853
609
root 12.8264 17.2193 18.5646 -173.448 41.0643 -172.336
lowerback -0.779278 -3.32688 3.71313
upperback -0.359671 -4.45008 0.438779
thorax -0.180751 -2.2272 -1.64005
lowerneck -0.364201 -4.02485 -12.4236
upperneck -8.18438 -4.59608 13.1478
head -1.69855 -2.19433 6.08646
rclavicle 8.17999e-014 1.31198e-014
rhumerus -46.4406 -7.0352 -80.4027
rradius 28.637
rwrist 23.4745
rhand 15.0308 -17.3215
rfingers 7.12502
rthumb 39.8807 -42.5835
lclavicle 8.17999e-014 1.31198e-014
lhumerus -36.8787 0.150989 92.5776
lradius 45.6696
lwrist -0.314474
lhand -3.79902 9.11949
lfingers 7.12502
lthumb 21.9469 37.8945
rfemur -7.38172 1.87952 23.3335
rtibia 37.9731
rfoot -14.5796 -4.38022
rtoes -20.8196
lfemur -3.61242 -0.162044 -17.4854
ltibia 37.4433
lfoot -28.1823 14.4443
ltoes -29.1873
610
root 12.8352 17.3044 18.5316 -173.205 40.9128 -172.302
lowerback -1.22656 -3.31596 3.87239
upperback -0.411843 -4.45368 0.515898
thorax 0.00958633 -2.2252 -1.67645
lowerneck -0.248592 -4.05431 -12.3325
upperneck -8.36928 -4.63406 13.0752
head -1.77122 -2.21577 6.05472
rclavicle -1.20513e-014 -1.35174e-014
rhumerus -45.8863 -7.47183 -79.8669
rradius 28.2149
rwrist 23.2348
rhand 15.0699 -17.4203
rfingers 7.12502
rthumb 39.9174 -42.6712
lclavicle -1.20513e-014 -1.35174e-014
lhumerus -36.7526 -0.407305 92.3063
lradius 45.5054
lwrist -0.0450373
lhand -3.88093 9.06699
lfingers 7.12502
lthumb 21.8683 37.8512
rfemur -6.72538 2.27235 23.3917
rtibia 36.2827
rfoot -13.4282 -4.76447
rtoes -21.0038
lfemur -3.30258 -0.288936 -17.4246
ltibia 36.1551
lfoot -26.6669 13.8496
ltoes -29.5439
611
root 12.839 17.3812 18.4923 -173.157 40.8407 -172.534
lowerback -1.73777 -3.25866 4.04415
upperback -0.336146 -4.4071 0.367887
thorax 0.351335 -2.19523 -1.95831
lowerneck -0.311085 -4.17953 -12.0749
upperneck -8.53661 -4.76368 13.1443
head -1.79607 -2.28226 6.03404
rclavicle 8.02748e-015 -1.70955e-014
rhumerus -45.1121 -7.95159 -79.6322
rradius 27.7878
rwrist 23.1044
rhand 14.8454 -17.5261
rfingers 7.12502
rthumb 39.7061 -42.8401
lclavicle 8.02748e-015 -1.70955e-014
lhumerus -36.4208 -0.99869 91.8057
lradius 45.2123
lwrist 0.047217
lhand -3.61163 8.50823
lfingers 7.12502
lthumb 22.1269 37.2621
rfemur -6.09484 2.79438 23.2064
rtibia 34.736
rfoot -12.37 -5.20479
rtoes -20.6835
lfemur -3.0018 -0.465354 -17.6641
ltibia 34.988
lfoot -25.2175 13.3949
ltoes -30.0378
612
root 12.847 17.4505 18.4564 -173.075 40.8113 -172.714
lowerback -2.20551 -3.24519 4.10073
upperback -0.314469 -4.41311 0.330822
thorax 0.627654 -2.19206 -2.05868
lowerneck -0.317494 -4.19004 -12.0082
upperneck -8.65109 -4.74925 13.3026
head -1.82569 -2.27759 6.07508
rclavicle -4.65137e-014 -3.18055e-015
rhumerus -44.3562 -8.38002 -79.3206
rradius 27.3073
rwrist 23.7476
rhand 14.5619 -17.5359
rfingers 7.12502
rthumb 39.4391 -42.9287
lclavicle -4.65137e-014 -3.18055e-015
lhumerus -36.1988 -1.11637 91.2984
lradius 44.9119
lwrist -0.22573
lhand -3.54689 9.06164
lfingers 7.12502
lthumb 22.189 37.8081
rfemur -5.57935 2.91447 22.9922
rtibia 33.3684
rfoot -11.4664 -5.27975
rtoes -20.3884
lfemur -2.72822 -0.424542 -17.831
ltibia 33.9001
lfoot -23.9193 12.8909
ltoes -30.1931
